HIERARCHY
ROOT Hips
{
    OFFSET 0.000000 0.000000 0.000000
    CHANNELS 6 Xposition Yposition Zposition Zrotation Xrotation Yrotation
    JOINT Spine
    {
        OFFSET -0.000000 7.979263 0.000000
        CHANNELS 3 Zrotation Xrotation Yrotation
        JOINT Spine1
        {
            OFFSET -0.000000 24.719021 0.000000
            CHANNELS 3 Zrotation Xrotation Yrotation
            JOINT Neck
            {
                OFFSET -0.000000 24.617504 2.237955
                CHANNELS 3 Zrotation Xrotation Yrotation
                JOINT Head
                {
                    OFFSET -0.000000 13.623132 -1.946162
                    CHANNELS 3 Zrotation Xrotation Yrotation
                    End Site
                    {
                        OFFSET -0.000000 24.327021 0.000000
                    }
                }
            }
            JOINT LeftShoulder
            {
                OFFSET 3.885773 23.018444 -0.302444
                CHANNELS 3 Zrotation Xrotation Yrotation
                JOINT LeftArm
                {
                    OFFSET 10.447750 0.000000 0.000000
                    CHANNELS 3 Zrotation Xrotation Yrotation
                    JOINT LeftForeArm
                    {
                        OFFSET 29.090096 0.000000 0.000000
                        CHANNELS 3 Zrotation Xrotation Yrotation
                        JOINT LeftHand
                        {
                            OFFSET 28.893339 0.000000 0.000000
                            CHANNELS 3 Zrotation Xrotation Yrotation
                            End Site
                            {
                                OFFSET 14.596213 0.000000 0.000000
                            }
                        }
                    }
                }
            }
            JOINT RightShoulder
            {
                OFFSET -3.864586 23.018444 -0.302444
                CHANNELS 3 Zrotation Xrotation Yrotation
                JOINT RightArm
                {
                    OFFSET -10.447750 0.000000 0.000000
                    CHANNELS 3 Zrotation Xrotation Yrotation
                    JOINT RightForeArm
                    {
                        OFFSET -29.090096 0.000000 0.000000
                        CHANNELS 3 Zrotation Xrotation Yrotation
                        JOINT RightHand
                        {
                            OFFSET -28.893339 0.000000 0.000000
                            CHANNELS 3 Zrotation Xrotation Yrotation
                            End Site
                            {
                                OFFSET -14.596213 0.000000 0.000000
                            }
                        }
                    }
                }
            }
        }
    }
    JOINT LeftUpLeg
    {
        OFFSET 9.730808 0.000000 0.000000
        CHANNELS 3 Zrotation Xrotation Yrotation
        JOINT LeftLeg
        {
            OFFSET -0.000000 -34.800129 0.000000
            CHANNELS 3 Zrotation Xrotation Yrotation
            JOINT LeftFoot
            {
                OFFSET -0.000000 -44.597416 0.000000
                CHANNELS 3 Zrotation Xrotation Yrotation
                JOINT LeftToeBase
                {
                    OFFSET -0.000000 -6.325025 14.596213
                    CHANNELS 3 Zrotation Xrotation Yrotation
                    End Site
                    {
                        OFFSET -0.000000 0.000000 3.892323
                    }
                }
            }
        }
    }
    JOINT RightUpLeg
    {
        OFFSET -9.730808 0.000000 0.000000
        CHANNELS 3 Zrotation Xrotation Yrotation
        JOINT RightLeg
        {
            OFFSET -0.000000 -34.800129 0.000000
            CHANNELS 3 Zrotation Xrotation Yrotation
            JOINT RightFoot
            {
                OFFSET -0.000000 -44.597416 0.000000
                CHANNELS 3 Zrotation Xrotation Yrotation
                JOINT RightToeBase
                {
                    OFFSET -0.000000 -6.325025 14.596213
                    CHANNELS 3 Zrotation Xrotation Yrotation
                    End Site
                    {
                        OFFSET -0.000000 0.000000 3.892323
                    }
                }
            }
        }
    }
}
MOTION
Frames:    10
Frame Time:    0.008333
21.036541    87.914337    39.101753    -11.920308    -7.631253    96.352615    1.469506    -7.973676    -3.147936    -0.132547    -8.773574    -3.260486    6.944058    24.204758    0.747901    -7.214936    -3.105232    0.089805    5.890240    5.801392    -18.810188    -63.975063    47.243202    -10.770808    3.702845    -12.968103    -14.662591    -3.902971    -12.387962    -3.460040    -4.348794    6.873875    -1.676336    83.026237    53.114422    -11.109615    4.890772    -15.001109    13.740344    4.289011    -15.480247    2.481909    9.671003    -16.725807    2.343452    -1.687719    6.033056    3.356706    -6.329970    3.283029    -1.542552    0.000000    0.000000    0.000000    3.312732    -40.732914    -1.116651    4.704223    42.609047    -18.226934    5.736780    1.072498    4.748362    0.000000    0.000000    0.000000    
21.213520    87.845055    39.076889    -11.921067    -7.278036    96.593964    1.361974    -8.129750    -3.063792    -0.181936    -8.687690    -3.174359    6.746810    24.043560    0.647371    -6.935590    -2.888052    0.019518    5.920708    5.793616    -18.600279    -64.722534    47.575871    -10.432633    3.489015    -12.912474    -14.441692    -3.812653    -12.380056    -3.103928    -4.439312    6.780809    -1.753068    83.313103    53.203262    -11.400612    4.694867    -15.178779    13.830862    4.336003    -15.637859    2.468458    9.259549    -16.601370    2.127440    -1.709909    6.038425    3.033357    -6.495310    3.061380    -1.239635    0.000000    0.000000    0.000000    3.192740    -38.818245    -0.793512    4.314796    40.072906    -17.471621    5.557133    1.233664    4.557862    0.000000    0.000000    0.000000    
21.383188    87.773026    39.057823    -11.926987    -6.942333    96.791298    1.379961    -8.340134    -3.025113    -0.316574    -8.440923    -3.149033    6.514444    23.676435    0.728012    -6.815094    -2.623683    0.097773    5.914076    5.671654    -18.029190    -65.397408    48.060326    -10.093470    3.175414    -12.854446    -14.198366    -3.910363    -12.360559    -3.232453    -4.649287    6.540348    -1.781192    83.457939    53.161709    -11.436227    4.734077    -15.147112    13.871438    4.280997    -15.612110    2.510436    8.897910    -16.492996    1.985443    -1.748240    6.051677    2.932733    -6.656617    2.870345    -1.198143    0.000000    0.000000    0.000000    3.077487    -37.028023    -0.208490    4.124052    37.678028    -16.857252    5.369010    1.504907    4.231099    0.000000    0.000000    0.000000    
21.548304    87.710014    39.052971    -11.941932    -6.642833    96.973633    1.342931    -8.498199    -2.941288    -0.314384    -8.312218    -3.063858    6.390477    23.406809    0.587853    -6.821084    -2.369461    -0.060269    5.860435    5.589944    -17.704382    -66.198067    48.359875    -9.608614    2.927074    -12.698663    -13.987415    -3.619641    -12.265518    -2.668832    -4.786695    6.446096    -1.846320    83.489723    53.215855    -11.430351    4.716419    -15.223670    13.885874    4.246983    -15.684868    2.590300    8.609465    -16.451794    2.101317    -1.795019    6.182871    2.542394    -6.872875    2.613398    -1.087349    0.000000    0.000000    0.000000    3.038867    -35.134377    0.682859    4.046600    35.057945    -16.600439    5.647981    1.791808    3.764359    0.000000    0.000000    0.000000    
21.731871    87.644882    39.046391    -11.942641    -6.318451    97.154045    1.315726    -8.733189    -2.888696    -0.337310    -8.009583    -3.012741    6.153187    22.947378    0.671784    -6.654048    -1.989856    0.031659    5.879105    5.537146    -17.260756    -66.989365    48.605347    -9.204652    2.673569    -12.643370    -13.709949    -3.396563    -12.256672    -2.509333    -4.986547    6.253580    -1.823570    83.580193    53.249355    -11.397771    4.725251    -15.348984    13.867424    4.073560    -15.814218    2.583457    8.294109    -16.313156    1.749712    -1.882163    6.160723    2.906348    -7.085741    2.451531    -1.286144    0.000000    0.000000    0.000000    2.979974    -33.196232    1.026101    3.596387    32.470894    -15.899617    6.360366    2.014917    2.999193    0.000000    0.000000    0.000000    
21.918579    87.588516    39.038967    -11.908843    -6.021620    97.283508    1.467718    -8.861724    -2.833031    -0.530309    -7.908435    -2.983360    5.785728    23.038652    0.755074    -6.318889    -2.235418    0.140273    5.749029    5.592329    -16.847372    -67.735558    48.799911    -8.469789    2.374939    -12.570438    -13.648117    -3.002790    -12.240129    -2.053541    -5.044614    6.174074    -1.708223    83.546959    53.239975    -11.294466    4.705036    -15.462153    13.815830    4.028615    -15.923455    2.590122    8.013988    -16.177364    1.630098    -1.931601    6.245295    2.940426    -7.331571    2.224938    -1.331623    0.000000    0.000000    0.000000    2.918581    -31.203035    1.468132    3.263681    29.771198    -15.360768    6.607173    2.509721    2.199324    0.000000    0.000000    0.000000    
22.079309    87.528839    39.006458    -11.935606    -5.659316    97.286995    1.436516    -9.082781    -2.688261    -0.420772    -7.647978    -2.830460    5.480046    22.806223    0.715292    -6.269512    -2.131984    0.079839    5.628189    5.726664    -16.441473    -68.276421    48.910145    -8.189828    2.061554    -12.479300    -13.427660    -2.812987    -12.198758    -1.806230    -5.287183    6.045495    -1.697226    83.449265    53.292477    -11.092094    4.705511    -15.573099    13.738723    4.069025    -16.025229    2.736436    7.633560    -16.104197    1.458473    -1.924657    6.370390    3.134481    -7.564381    2.004106    -1.384655    0.000000    0.000000    0.000000    2.829431    -29.308825    1.781509    2.768974    27.081707    -14.770746    6.797115    3.264080    1.675532    0.000000    0.000000    0.000000    
22.250095    87.472191    38.995872    -11.923013    -5.384466    97.357964    1.681396    -9.202453    -2.608437    -0.726875    -7.647586    -2.792313    5.553412    23.000414    0.747770    -6.403470    -2.291634    0.098588    5.607527    6.045166    -16.241405    -68.946503    48.869225    -7.563416    1.742334    -12.547002    -13.247431    -2.496668    -12.314828    -1.618676    -5.076592    6.040804    -1.376874    83.326881    53.411144    -11.120087    4.686037    -15.880516    13.804987    3.683144    -16.349751    2.459392    7.361104    -16.097486    1.332345    -1.934716    6.650192    3.116641    -7.775071    1.712855    -1.350731    0.000000    0.000000    0.000000    2.752079    -27.349581    2.089311    2.431872    24.372669    -14.313528    5.465844    3.210840    1.525204    0.000000    0.000000    0.000000    
22.400457    87.408127    38.960732    -12.008888    -5.000199    97.362770    1.752591    -9.336955    -2.450285    -0.816935    -7.753469    -2.648745    5.375190    23.167421    0.742848    -6.347404    -2.335553    0.097509    5.442106    6.174783    -16.184652    -69.898460    49.010025    -6.625301    1.514431    -12.633862    -12.993838    -2.260728    -12.439075    -1.365838    -5.035748    6.108302    -1.249699    83.258850    53.715450    -11.115125    4.492306    -16.127869    13.735049    3.983220    -16.559584    2.626375    6.934322    -16.242502    1.036204    -1.922189    7.029147    3.393295    -7.949037    1.494201    -1.382217    0.000000    0.000000    0.000000    2.477273    -25.553083    2.276571    2.171612    21.664745    -13.723917    4.346202    2.182350    1.409133    0.000000    0.000000    0.000000    
22.550892    87.362503    38.969643    -12.039343    -4.731857    97.423676    1.852103    -9.503820    -2.345398    -0.747922    -7.642910    -2.549257    4.941386    23.027132    0.836207    -6.070562    -2.186085    0.211819    5.207063    6.148996    -16.002630    -70.801491    49.249435    -5.642721    1.166354    -12.762146    -12.814078    -1.867091    -12.616520    -1.115175    -5.214454    5.984022    -1.148616    83.222740    53.680477    -11.021345    4.447842    -16.209368    13.712344    3.783411    -16.641018    2.572548    6.646950    -16.480158    0.821178    -1.887956    7.587598    3.690716    -8.138943    1.329775    -1.606215    0.000000    0.000000    0.000000    2.295712    -23.829306    2.564056    2.046656    19.106766    -13.264344    3.606450    1.792262    1.375928    0.000000    0.000000    0.000000    
